# xmcd CD database file
#
# Track frame offsets:
#	150
#	25984
#	42875
#	69137
#	93856
#	114614
#	136227
#	158250
#	181054
#	194805
#
# Disc length: 2855 seconds
#
# Revision: 0
# Processed by: cddbd v1.5.2PL0 Copyright (c) Steve Scherf et al.
# Submitted via: CDex 1.70beta2
#
DISCID=770b250a
DTITLE=宮本文昭 - サンクス！
DYEAR=2006
DGENRE=New Age
TTITLE0=Dawn Flight
TTITLE1=明日の記憶
TTITLE2=Memories of th Past
TTITLE3=Smile for Her
TTITLE4=白鳥の歌
TTITLE5=朝の祈り
TTITLE6=Your Dream
TTITLE7=Still You
TTITLE8=Whisper
TTITLE9=The Aim and End 
EXTD=YEAR: 2006
EXTT0=
EXTT1=
EXTT2=
EXTT3=
EXTT4=
EXTT5=
EXTT6=
EXTT7=
EXTT8=
EXTT9=
PLAYORDER=
